<?xml version="1.0" encoding="UTF-8" standalone="no"?>
<!-- Created with Inkscape (http://www.inkscape.org/) -->

<svg
   xmlns:dc="http://purl.org/dc/elements/1.1/"
   xmlns:cc="http://creativecommons.org/ns#"
   xmlns:rdf="http://www.w3.org/1999/02/22-rdf-syntax-ns#"
   xmlns:svg="http://www.w3.org/2000/svg"
   xmlns="http://www.w3.org/2000/svg"
   xmlns:sodipodi="http://sodipodi.sourceforge.net/DTD/sodipodi-0.dtd"
   xmlns:inkscape="http://www.inkscape.org/namespaces/inkscape"
   width="210mm"
   height="297mm"
   viewBox="0 0 210 297"
   version="1.1"
   id="svg8"
   inkscape:version="0.92.1 r15371"
   sodipodi:docname="logo_Félix.svg">
  <defs
     id="defs2">
    <marker
       style="overflow:visible"
       refY="0.0"
       refX="0.0"
       orient="auto"
       id="DistanceX">
      <path
         id="path4498"
         style="stroke:#000000; stroke-width:0.5"
         d="M 3,-3 L -3,3 M 0,-5 L  0,5" />
    </marker>
    <pattern
       y="0"
       x="0"
       width="8"
       patternUnits="userSpaceOnUse"
       id="Hatch"
       height="8">
      <path
         id="path4501"
         stroke-width="0.25"
         stroke="#000000"
         linecap="square"
         d="M8 4 l-4,4" />
      <path
         id="path4503"
         stroke-width="0.25"
         stroke="#000000"
         linecap="square"
         d="M6 2 l-4,4" />
      <path
         id="path4505"
         stroke-width="0.25"
         stroke="#000000"
         linecap="square"
         d="M4 0 l-4,4" />
    </pattern>
    <symbol
       id="*Model_Space" />
    <symbol
       id="*Paper_Space" />
    <symbol
       id="*Paper_Space0" />
    <symbol
       id="_None" />
  </defs>
  <sodipodi:namedview
     id="base"
     pagecolor="#ffffff"
     bordercolor="#666666"
     borderopacity="1.0"
     inkscape:pageopacity="0.0"
     inkscape:pageshadow="2"
     inkscape:zoom="0.98994949"
     inkscape:cx="418.47194"
     inkscape:cy="491.60436"
     inkscape:document-units="mm"
     inkscape:current-layer="layer1"
     showgrid="false"
     inkscape:window-width="1920"
     inkscape:window-height="1057"
     inkscape:window-x="-8"
     inkscape:window-y="-8"
     inkscape:window-maximized="1" />
  <metadata
     id="metadata5">
    <rdf:RDF>
      <cc:Work
         rdf:about="">
        <dc:format>image/svg+xml</dc:format>
        <dc:type
           rdf:resource="http://purl.org/dc/dcmitype/StillImage" />
        <dc:title></dc:title>
      </cc:Work>
    </rdf:RDF>
  </metadata>
  <g
     inkscape:label="Capa 1"
     inkscape:groupmode="layer"
     id="layer1">
    <g
       id="g4534"
       inkscape:label="0"
       transform="matrix(0.2074723,0,0,0.2074723,26.330672,-16.237918)">
      <path
         id="path4514"
         style="fill:none;stroke:#000000"
         d="m 256.50837,1033.2243 a 21.073921,21.073921 0 0 0 -8.23353,-38.51209 75.265223,75.265223 0 0 0 -41.69299,5.42679 28.999792,28.999792 0 0 0 -16.99255,21.8818 23.784118,23.784118 0 0 0 9.28451,22.9322 16.679123,16.679123 0 0 0 21.54722,-1.4004 8.460395,8.460395 0 0 0 2.45257,-7.5274 3.232604,3.232604 0 0 0 -4.37951,-2.4508 26.845237,26.845237 0 0 0 -5.25547,2.8009 5.496299,5.496299 0 0 1 -5.25546,0.5252 8.740802,8.740802 0 0 1 -2.97806,-14.0044 17.551387,17.551387 0 0 1 17.69334,-4.9015 12.101898,12.101898 0 0 1 8.40869,8.7527 36.037698,36.037698 0 0 1 -7.35757,31.6849 29.955754,29.955754 0 0 1 -18.07259,10.3357 25.602683,25.602683 0 0 1 -13.48886,-1.4004 29.980913,29.980913 0 0 1 -19.09479,-28.359 146.41467,146.41467 0 0 1 8.93473,-48.33744 66.088311,66.088311 0 0 1 19.97267,-28.21227 73.040902,73.040902 0 0 1 25.5764,-13.65426 3.576106,3.576106 0 0 0 -1.05112,-7.0022 60.856604,60.856604 0 0 0 -41.1675,16.45522 195.85175,195.85175 0 0 0 -36.79649,46.94055 60.844722,60.844722 0 0 0 0.16502,59.9081 166.72267,166.72267 0 0 0 27.68098,36.0881 72.108461,72.108461 0 0 0 22.42317,15.0548 43.40432,43.40432 0 0 0 27.85381,2.1006 18.932404,18.932404 0 0 0 12.26257,-9.9781 9.335281,9.335281 0 0 0 -0.17516,-8.5777 31.679319,31.679319 0 0 1 -3.32839,-20.8315 101.53443,101.53443 0 0 1 21.06436,-45.7381"
         inkscape:connector-curvature="0" />
      <path
         id="path4516"
         style="fill:none;stroke:#000000"
         d="m 400.25878,541.91464 a 147.80354,147.80354 0 0 0 -40.96125,7.31025 27.385696,27.385696 0 0 1 -15.7468,0.41132 10.938301,10.938301 0 0 1 -7.64074,-7.53063 133.8465,133.8465 0 0 0 -4.34853,-12.68577 48.350716,48.350716 0 0 1 4.36758,-44.31863 14.063885,14.063885 0 0 1 12.11633,-6.39019 20.95392,20.95392 0 0 1 14.13579,5.94176 8.570364,8.570364 0 0 1 1.23409,10.76229 14.390042,14.390042 0 0 1 -11.55533,6.6144 3.917523,3.917523 0 0 0 -2.01946,7.17488 41.747361,41.747361 0 0 0 8.86291,4.48434 10.051567,10.051567 0 0 0 12.11633,-4.37218 27.178438,27.178438 0 0 1 7.06782,-7.95968 16.790403,16.790403 0 0 0 0,-26.7824 40.194073,40.194073 0 0 0 -28.93261,-7.86323 5.492017,5.492017 0 0 1 -5.33976,-2.61265 8.721711,8.721711 0 0 1 -0.12075,-8.82034 122.61334,122.61334 0 0 1 45.4523,-45.71534 28.031965,28.031965 0 0 1 11.31074,-3.60931"
         inkscape:connector-curvature="0" />
      <path
         id="path4518"
         style="fill:none;stroke:#000000"
         d="M 400.25878,1055.6419 A 547.12564,547.12564 0 0 1 228.09957,891.4762 207.579,207.579 0 0 1 400.25878,568.40581 207.579,207.579 0 0 1 572.418,891.4762 547.12564,547.12564 0 0 1 400.25878,1055.6419 Z"
         inkscape:connector-curvature="0" />
      <path
         id="path4520"
         style="fill:none;stroke:#000000"
         d="M 400.27458,558.30618 A 217.67864,217.67864 0 0 1 580.81011,897.09538 557.22528,557.22528 0 0 1 400.25878,1067.3961 557.22528,557.22528 0 0 1 219.70746,897.09538 217.67864,217.67864 0 0 1 400.24298,558.30618"
         inkscape:connector-curvature="0" />
      <path
         id="path4522"
         style="fill:none;stroke:#000000"
         d="m 580.09768,625.42296 a 67.330581,67.330581 0 0 1 73.16701,-29.62691 94.363411,94.363411 0 0 1 35.59765,17.32561 309.5432,309.5432 0 0 0 38.31718,25.64207 61.11302,61.11302 0 0 0 58.29582,1.04628 4.892996,4.892996 0 0 1 5.7214,7.79647 39.716767,39.716767 0 0 0 -9.36815,14.93898 59.232817,59.232817 0 0 1 -10.40276,18.36525 181.62698,181.62698 0 0 1 -36.93038,33.61191 50.879564,50.879564 0 0 1 -54.78858,1.73252 94.215037,94.215037 0 0 1 -16.50373,-12.47547 155.88577,155.88577 0 0 0 -23.0598,-18.01865 85.027653,85.027653 0 0 0 -30.16848,-11.95469 5.251115,5.251115 0 0 1 1.38704,-10.39556 13.954042,13.954042 0 0 0 11.09651,-4.15807 49.267978,49.267978 0 0 1 54.09506,-11.08844 66.429392,66.429392 0 0 1 20.28573,13.16755 14.623958,14.623958 0 0 1 1.21354,19.92455 20.992496,20.992496 0 0 1 -15.95113,7.62325 17.53355,17.53355 0 0 1 -12.48332,-5.02448 3.992973,3.992973 0 0 1 1.38704,-6.58378 77.278489,77.278489 0 0 1 6.93517,-2.25233 4.235992,4.235992 0 0 0 1.21378,-7.62325 12.374891,12.374891 0 0 0 -10.22974,-1.55929 12.774844,12.774844 0 0 0 -8.66896,8.4895 15.764924,15.764924 0 0 0 5.20137,16.97918 56.703591,56.703591 0 0 0 23.92682,11.26182 16.371703,16.371703 0 0 0 16.81792,-6.757 38.786527,38.786527 0 0 0 0.86701,-42.62124 30.397129,30.397129 0 0 0 -9.02847,-9.21292 531.61485,531.61485 0 0 1 -33.4628,-23.90939 48.408404,48.408404 0 0 0 -38.31718,-9.35592 60.340688,60.340688 0 0 0 -33.4628,18.36525 56.430806,56.430806 0 0 1 -8.66897,7.62325 4.474218,4.474218 0 0 1 -6.24189,-6.23718 13.543212,13.543212 0 0 0 2.21109,-5.03887 z"
         inkscape:connector-curvature="0" />
      <path
         id="path4524"
         style="fill:none;stroke:#000000"
         d="m 544.0092,1033.2243 a 21.073921,21.073921 0 0 1 8.23353,-38.51209 75.265223,75.265223 0 0 1 41.69299,5.42679 28.999792,28.999792 0 0 1 16.99255,21.8818 23.784118,23.784118 0 0 1 -9.28451,22.9322 16.679123,16.679123 0 0 1 -21.54723,-1.4004 8.460395,8.460395 0 0 1 -2.45257,-7.5274 3.232604,3.232604 0 0 1 4.37951,-2.4508 26.845237,26.845237 0 0 1 5.25547,2.8009 5.496299,5.496299 0 0 0 5.25547,0.5252 8.740802,8.740802 0 0 0 2.97806,-14.0044 17.551387,17.551387 0 0 0 -17.69334,-4.9015 12.101898,12.101898 0 0 0 -8.40869,8.7527 36.037698,36.037698 0 0 0 7.35757,31.6849 29.955754,29.955754 0 0 0 18.07259,10.3357 25.602683,25.602683 0 0 0 13.48885,-1.4004 29.980913,29.980913 0 0 0 19.09479,-28.359 146.41467,146.41467 0 0 0 -8.93473,-48.33744 66.088311,66.088311 0 0 0 -19.97266,-28.21227 73.040902,73.040902 0 0 0 -25.57641,-13.65426 3.576106,3.576106 0 0 1 1.05112,-7.0022 60.856604,60.856604 0 0 1 41.16751,16.45522 195.85175,195.85175 0 0 1 36.79649,46.94055 60.844722,60.844722 0 0 1 -0.16503,59.9081 166.72267,166.72267 0 0 1 -27.68097,36.0881 72.108461,72.108461 0 0 1 -22.42318,15.0548 43.40432,43.40432 0 0 1 -27.85381,2.1006 18.932404,18.932404 0 0 1 -12.26257,-9.9781 9.335281,9.335281 0 0 1 0.17516,-8.5777 31.679319,31.679319 0 0 0 3.32839,-20.8315 101.53443,101.53443 0 0 0 -21.06435,-45.7381"
         inkscape:connector-curvature="0" />
      <path
         id="path4526"
         style="fill:none;stroke:#000000"
         d="m 400.25878,541.91464 a 147.80354,147.80354 0 0 1 40.96125,7.31025 27.385696,27.385696 0 0 0 15.7468,0.41132 10.938301,10.938301 0 0 0 7.64074,-7.53063 133.8465,133.8465 0 0 1 4.34854,-12.68577 48.350716,48.350716 0 0 0 -4.36759,-44.31863 14.063885,14.063885 0 0 0 -12.11633,-6.39019 20.95392,20.95392 0 0 0 -14.13578,5.94176 8.570364,8.570364 0 0 0 -1.2341,10.76229 14.390042,14.390042 0 0 0 11.55534,6.6144 3.917523,3.917523 0 0 1 2.01945,7.17488 41.747361,41.747361 0 0 1 -8.86291,4.48434 10.051567,10.051567 0 0 1 -12.11633,-4.37218 27.178438,27.178438 0 0 0 -7.06782,-7.95968 16.790403,16.790403 0 0 1 0,-26.7824 40.194073,40.194073 0 0 1 28.93262,-7.86323 5.492017,5.492017 0 0 0 5.33976,-2.61265 8.721711,8.721711 0 0 0 0.12075,-8.82034 122.61334,122.61334 0 0 0 -45.45231,-45.71534 28.031965,28.031965 0 0 0 -11.31074,-3.60931"
         inkscape:connector-curvature="0" />
      <path
         id="path4528"
         style="fill:none;stroke:#000000"
         d="m 93.448865,653.18874 a 30.397129,30.397129 0 0 1 9.028475,-9.21292 531.61485,531.61485 0 0 0 33.4628,-23.90939 48.408404,48.408404 0 0 1 38.31718,-9.35592 60.340688,60.340688 0 0 1 33.4628,18.36525 56.430806,56.430806 0 0 0 8.66897,7.62325 4.474218,4.474218 0 0 0 6.24189,-6.23718 13.543212,13.543212 0 0 1 -2.21109,-5.03887 67.330581,67.330581 0 0 0 -73.16702,-29.62691 94.363411,94.363411 0 0 0 -35.59764,17.32561 309.5432,309.5432 0 0 1 -38.317187,25.64207 61.11302,61.11302 0 0 1 -58.295817,1.04628 4.892996,4.892996 0 0 0 -5.721399,7.79647 39.716767,39.716767 0 0 1 9.368148,14.93898 59.232817,59.232817 0 0 0 10.40276,18.36525 181.62698,181.62698 0 0 0 36.930385,33.61191 50.879564,50.879564 0 0 0 54.78857,1.73252 94.215037,94.215037 0 0 0 16.50373,-12.47547 155.88577,155.88577 0 0 1 23.05981,-18.01865 85.027653,85.027653 0 0 1 30.16847,-11.95469 5.251115,5.251115 0 0 0 -1.38703,-10.39556 13.954042,13.954042 0 0 1 -11.09652,-4.15807 49.267978,49.267978 0 0 0 -54.09505,-11.08844 66.429392,66.429392 0 0 0 -20.28574,13.16755 14.623958,14.623958 0 0 0 -1.21353,19.92455 20.992496,20.992496 0 0 0 15.95113,7.62325 17.53355,17.53355 0 0 0 12.48331,-5.02448 3.992973,3.992973 0 0 0 -1.38703,-6.58378 77.278489,77.278489 0 0 0 -6.93518,-2.25233 4.235992,4.235992 0 0 1 -1.21377,-7.62325 12.374891,12.374891 0 0 1 10.22973,-1.55929 12.774844,12.774844 0 0 1 8.66897,8.4895 15.764924,15.764924 0 0 1 -5.20138,16.97918 56.703591,56.703591 0 0 1 -23.92682,11.26182 16.371703,16.371703 0 0 1 -16.817911,-6.757 38.786527,38.786527 0 0 1 -0.867014,-42.62124 z"
         inkscape:connector-curvature="0" />
      <path
         id="path4530"
         style="fill:none;stroke:#000000"
         d="m 464.58852,485.10118 a 14.063885,14.063885 0 0 0 -12.11633,-6.39019 20.95392,20.95392 0 0 0 -14.13578,5.94176 8.570364,8.570364 0 0 0 -1.2341,10.76229 14.390042,14.390042 0 0 0 11.55534,6.6144 3.917523,3.917523 0 0 1 2.01945,7.17488 41.747361,41.747361 0 0 1 -8.86291,4.48434 10.051567,10.051567 0 0 1 -12.11633,-4.37218 27.178438,27.178438 0 0 0 -7.06782,-7.95968 16.790403,16.790403 0 0 1 0,-26.7824 40.194073,40.194073 0 0 1 28.93262,-7.86323 5.492017,5.492017 0 0 0 5.33976,-2.61265 8.721711,8.721711 0 0 0 0.12075,-8.82034 122.61334,122.61334 0 0 0 -45.45231,-45.71534 28.031965,28.031965 0 0 0 -11.31208,-3.60944 28.031965,28.031965 0 0 0 -11.31208,3.60944 122.61334,122.61334 0 0 0 -45.4523,45.71534 8.721711,8.721711 0 0 0 0.12075,8.82034 5.492017,5.492017 0 0 0 5.33976,2.61265 40.194073,40.194073 0 0 1 28.93261,7.86323 16.790403,16.790403 0 0 1 0,26.7824 27.178438,27.178438 0 0 0 -7.06782,7.95968 10.051567,10.051567 0 0 1 -12.11633,4.37218 41.747361,41.747361 0 0 1 -8.86291,-4.48434 3.917523,3.917523 0 0 1 2.01946,-7.17488 14.390042,14.390042 0 0 0 11.55533,-6.6144 8.570364,8.570364 0 0 0 -1.23409,-10.76229 20.95392,20.95392 0 0 0 -14.13579,-5.94176 14.063885,14.063885 0 0 0 -12.11633,6.39019 48.350716,48.350716 0 0 0 -4.36758,44.31863 133.8465,133.8465 0 0 1 4.34853,12.68577 10.938301,10.938301 0 0 0 7.64074,7.53063 27.385696,27.385696 0 0 0 15.7468,-0.41132 147.80354,147.80354 0 0 1 40.96125,-7.31025 147.80354,147.80354 0 0 1 40.96125,7.31025 27.385696,27.385696 0 0 0 15.7468,0.41132 10.938301,10.938301 0 0 0 7.64074,-7.53063 133.8465,133.8465 0 0 1 4.34854,-12.68577 48.350716,48.350716 0 0 0 -4.36759,-44.31863 z"
         inkscape:connector-curvature="0" />
      <path
         id="path4532"
         style="fill:none;stroke:#000000"
         d="m 547.29659,655.59477 -29.51615,-29.51614 -44.00309,30.73175 A 137.59389,137.59389 0 0 0 430.5141,638.89015 l -9.38425,-52.84551 h -20.87107 -20.87107 l -9.38425,52.84551 a 137.59389,137.59389 0 0 0 -43.26325,17.92023 l -44.00308,-30.73175 -29.51615,29.51614 30.73175,44.00309 a 137.59389,137.59389 0 0 0 -17.92022,43.26325 l -52.84551,9.38425 v 41.74214 l 52.84551,9.38425 a 137.59389,137.59389 0 0 0 17.92022,43.26325 l -30.73175,44.00308 29.51615,29.51615 44.00308,-30.73175 a 137.59389,137.59389 0 0 0 23.43021,11.84711 l 31.027,-79.38387 a 52.362004,52.362004 0 0 1 19.06136,-101.1313 52.362004,52.362004 0 0 1 19.06137,101.1313 l 31.02699,79.38387 a 137.59389,137.59389 0 0 0 23.43021,-11.84711 l 44.00309,30.73175 29.51615,-29.51615 -30.73176,-44.00308 a 137.59389,137.59389 0 0 0 17.92023,-43.26325 l 52.84551,-9.38425 v -41.74214 l -52.84551,-9.38425 a 137.59389,137.59389 0 0 0 -17.92023,-43.26325 z"
         inkscape:connector-curvature="0" />
    </g>
  </g>
</svg>
