<?xml version="1.0" encoding="UTF-8" standalone="no"?>
<!-- Created with Inkscape (http://www.inkscape.org/) -->

<svg
   xmlns:dc="http://purl.org/dc/elements/1.1/"
   xmlns:cc="http://creativecommons.org/ns#"
   xmlns:rdf="http://www.w3.org/1999/02/22-rdf-syntax-ns#"
   xmlns:svg="http://www.w3.org/2000/svg"
   xmlns="http://www.w3.org/2000/svg"
   xmlns:sodipodi="http://sodipodi.sourceforge.net/DTD/sodipodi-0.dtd"
   xmlns:inkscape="http://www.inkscape.org/namespaces/inkscape"
   version="1.1"
   id="svg3713"
   width="1344"
   height="1296"
   viewBox="0 0 1344 1296"
   sodipodi:docname="sapoconcho_logo.svg"
   inkscape:version="0.92.3 (2405546, 2018-03-11)">
  <metadata
     id="metadata3719">
    <rdf:RDF>
      <cc:Work
         rdf:about="">
        <dc:format>image/svg+xml</dc:format>
        <dc:type
           rdf:resource="http://purl.org/dc/dcmitype/StillImage" />
        <dc:title></dc:title>
      </cc:Work>
    </rdf:RDF>
  </metadata>
  <defs
     id="defs3717" />
  <sodipodi:namedview
     pagecolor="#ffffff"
     bordercolor="#666666"
     borderopacity="1"
     objecttolerance="10"
     gridtolerance="10"
     guidetolerance="10"
     inkscape:pageopacity="0"
     inkscape:pageshadow="2"
     inkscape:window-width="1920"
     inkscape:window-height="1137"
     id="namedview3715"
     showgrid="false"
     inkscape:zoom="0.74845679"
     inkscape:cx="672"
     inkscape:cy="648"
     inkscape:window-x="-8"
     inkscape:window-y="-8"
     inkscape:window-maximized="1"
     inkscape:current-layer="svg3713" />
  <path
     style="fill:#000000;stroke-width:1.33333337"
     d="m 424.19155,1277.2477 c -17.75864,-3.1502 -41.42559,-17.2057 -57.7608,-34.3036 -25.44915,-26.6373 -44.60623,-55.6309 -51.72063,-78.2774 -5.4232,-17.2632 -5.07959,-42.7691 0.81469,-60.4737 7.81051,-23.4604 35.23188,-63.0213 62.37448,-89.988 22.88756,-22.73925 41.47322,-31.97955 70.21046,-34.90685 9.7452,-0.9926 13.22633,0.7534 13.22633,6.6338 0,4.0868 -1.39209,5.0571 -14.46915,10.08512 -22.31064,8.57803 -44.49316,26.95563 -56.49484,46.80433 -14.08041,23.2865 -24.52312,67.3064 -23.50073,99.0642 0.41597,12.921 0.94473,15.7373 4.2018,22.3798 4.69937,9.584 13.93444,18.7548 23.3916,23.2287 31.93211,15.1063 68.46985,-12.0337 68.42743,-50.8274 -0.0149,-13.646 -2.1959,-19.9789 -8.67987,-25.2042 -4.51469,-3.6383 -6.09965,-4.122 -13.33333,-4.0689 -14.26071,0.1046 -24.87624,7.8806 -24.87624,18.2221 0,4.0316 0.90798,6.1641 3.89744,9.1535 4.76365,4.7637 7.61781,4.8637 16.10256,0.5641 7.72978,-3.9169 8.4769,-3.9992 11.23809,-1.2381 5.62155,5.6216 0.0781,17.2529 -10.51627,22.0653 -15.0518,6.837 -32.21285,-0.9613 -41.43093,-18.8272 -3.8686,-7.4978 -4.18381,-22.9918 -0.65787,-32.3361 7.43267,-19.6976 24.75975,-31.2513 55.61607,-37.0848 13.02784,-2.463 42.2756,-1.1006 49.87009,2.323 13.10604,5.9082 21.23494,18.4748 21.18487,32.7501 -0.038,10.8216 -3.40925,18.2569 -12.55124,27.6812 -17.646,18.1909 -33.10283,50.0452 -38.11116,78.5417 -1.83668,10.4503 -0.76461,19.4499 3.64731,30.618 3.9813,10.078 3.66436,17.6396 -1.00403,23.9539 -3.89312,5.2657 -11.40447,10.2775 -18.1058,12.0807 -7.89549,2.1245 -23.01647,2.8011 -30.99033,1.3867 z m 475.98849,-0.019 c -9.28909,-1.6243 -15.50575,-4.6457 -21.129,-10.2689 -8.01244,-8.0125 -8.93739,-14.6631 -3.82757,-27.5215 4.46278,-11.2301 5.32977,-18.9222 3.4198,-30.3409 -4.71079,-28.1633 -20.00296,-59.5028 -38.5955,-79.097 -9.53681,-10.0507 -12.5695,-17.4909 -11.79693,-28.9421 0.95603,-14.1703 8.44309,-25.1772 20.96605,-30.8225 7.59506,-3.4239 36.84295,-4.7861 49.8701,-2.3227 28.68581,5.4244 46.0049,16.0548 54.02218,33.1586 3.0404,6.4863 3.5569,9.3475 3.53736,19.5953 -0.026,13.6454 -2.31854,19.5859 -10.85133,28.1187 -12.7132,12.7132 -31.77653,13.0004 -42.18095,0.6354 -4.12433,-4.9014 -4.828,-12.0138 -1.51626,-15.3255 2.76118,-2.7612 3.5083,-2.6789 11.23809,1.2381 8.48475,4.2996 11.33891,4.1996 16.10256,-0.5641 9.61107,-9.6111 1.51311,-23.6485 -15.7982,-27.3855 -12.01873,-2.5944 -24.38051,5.2918 -26.34763,16.8086 -5.15992,30.2094 10.76927,58.363 37.28075,65.8907 20.72569,5.8848 43.50877,-5.0691 53.69767,-25.8176 3.6143,-7.3601 3.72882,-8.2479 3.64589,-28.2654 -0.14907,-35.9829 -10.66592,-75.8371 -25.827,-97.873 -12.24921,-17.8036 -33.20444,-34.2612 -53.61823,-42.10993 -13.07705,-5.02802 -14.46914,-5.99832 -14.46914,-10.08512 0,-5.8804 3.48113,-7.6264 13.22633,-6.6338 31.77809,3.2371 54.00399,15.87282 80.97469,46.03515 26.26883,29.3774 47.37523,62.6345 53.31013,84 3.7839,13.6222 3.4581,41.5799 -0.6365,54.6197 -5.8906,18.7594 -19.3752,41.1393 -38.67837,64.1931 -20.19056,24.1137 -39.3707,38.839 -59.6706,45.8112 -10.67914,3.6679 -26.12832,5.0582 -36.34839,3.2711 z M 654.48528,1114.2731 C 605.69049,1084.2311 553.09848,1044.039 508.66941,1002.8371 447.24369,945.87315 378.02325,859.73835 350.46457,805.97411 322.13936,750.71443 309.30349,697.85772 309.35919,636.70648 c 0.0337,-36.98036 2.96865,-61.19172 11.32924,-93.45768 10.77965,-41.60179 26.35645,-76.18336 50.71112,-112.58213 11.963,-17.87907 13.87774,-20.38518 27.427,-35.89767 110.14213,-126.10131 291.87506,-161.52523 441.19318,-85.99867 43.30312,21.90314 84.66239,54.82114 116.29924,92.563 40.64767,48.49152 69.35233,112.0614 79.77283,176.66667 4.0584,25.16129 5.0326,74.61257 1.9699,100 -8.9777,74.41988 -32.7245,129.08961 -88.03209,202.66665 -62.1785,82.7176 -136.28332,153.53715 -221.95274,212.11295 -21.57154,14.7494 -50.78127,32.5537 -53.40746,32.5537 -1.22101,0 -10.30388,-4.977 -20.18413,-11.0602 z m -133.87472,-269.67735 35.35399,-24.73754 9.01909,5.33874 c 8.81801,5.2197 28.2228,14.06121 29.02439,13.22453 0.22209,-0.23181 5.50753,-13.62148 11.74542,-29.75481 6.2379,-16.13334 15.94756,-41.03334 21.57704,-55.33334 5.62948,-14.3 11.65098,-29.73448 13.3811,-34.29885 l 3.14569,-8.29884 -9.52497,-5.00524 c -17.84362,-9.37655 -32.39766,-26.92775 -39.82807,-48.03 -3.86499,-10.97648 -4.77409,-31.58061 -1.92655,-43.66356 7.15943,-30.37952 29.48036,-53.73236 60.09172,-62.86979 10.7711,-3.21514 32.99268,-3.19612 44,0.0377 39.25804,11.53349 63.96487,46.02493 61.6116,86.01157 -0.8169,13.88064 -3.48593,23.12141 -10.53776,36.48409 -5.9653,11.30376 -20.6658,25.68691 -32.73673,32.03 l -9.52497,5.00524 3.14569,8.29884 c 1.73012,4.56438 7.75161,19.99886 13.38109,34.29886 5.62948,14.3 15.33915,39.2 21.57704,55.33333 6.2379,16.13333 11.52334,29.523 11.74543,29.75481 0.80159,0.83668 20.20637,-8.00482 29.02439,-13.22453 l 9.01909,-5.33873 35.51868,24.85282 35.51867,24.8528 23.79556,-23.768 c 13.08756,-13.07245 23.78174,-24.0743 23.76488,-24.44861 -0.0169,-0.37431 -11.0783,-16.44495 -24.58091,-35.71253 l -24.55023,-35.03196 5.05072,-8.96804 c 9.6064,-17.05708 19.70459,-42.338 22.17815,-55.52318 0.67752,-3.61153 1.64189,-4.78608 4.40032,-5.35936 7.45897,-1.55021 78.78249,-14.08554 80.14363,-14.08554 0.99521,0 1.32513,-10.50346 1.07817,-34.32538 l -0.35584,-34.32532 -38,-6.91644 c -20.9,-3.80404 -39.66883,-6.95762 -41.70851,-7.00797 -2.03969,-0.0504 -3.91006,-0.84152 -4.1564,-1.75819 -5.8169,-21.64574 -15.83629,-46.44373 -25.2673,-62.53653 l -3.45607,-5.89732 5.06157,-7.28308 c 2.78386,-4.00568 13.87162,-19.85963 24.63946,-35.23099 l 19.5779,-27.94792 -23.012,-23.5199 c -12.65658,-12.93595 -23.78217,-23.60939 -24.72352,-23.71875 -0.94133,-0.10933 -16.54133,10.17953 -34.66666,22.86421 -18.12532,12.68467 -33.65898,23.49155 -34.51922,24.01528 -0.86024,0.52374 -7.76024,-2.32184 -15.33333,-6.32349 -15.32348,-8.097 -35.04261,-15.98249 -46.90487,-18.75683 -4.29124,-1.00362 -7.99313,-2.01564 -8.2264,-2.24892 -0.23328,-0.23326 -2.30865,-11.22225 -4.61194,-24.41994 -2.3033,-13.1977 -5.65142,-31.98576 -7.44026,-41.75124 -1.78885,-9.7655 -3.25245,-18.0155 -3.25245,-18.33334 0,-0.31785 -15.55233,-0.5779 -34.56072,-0.5779 h -34.56073 l -0.74484,3.66666 c -0.40966,2.01667 -3.81399,21.06667 -7.56516,42.33334 -3.75118,21.26666 -6.9683,38.82128 -7.14914,39.01025 -0.18084,0.18897 -4.7742,1.52036 -10.20744,2.95864 -14.36002,3.80136 -29.32556,9.85076 -44.92532,18.15984 -7.87977,4.19708 -14.40248,6.88451 -15.33333,6.31749 -0.89099,-0.54274 -16.4498,-11.36517 -34.57512,-24.04984 C 501.58895,406.37837 486.23891,396 485.60305,396 c -1.92872,0 -47.62906,46.66643 -47.21406,48.21215 0.21242,0.79124 4.46013,7.2172 9.43933,14.2799 19.89717,28.22298 31.67576,45.04202 34.97727,49.94522 l 3.4695,5.15269 -8.97697,17.53836 c -7.40711,14.47131 -13.40747,30.30857 -19.40036,51.20501 -0.26289,0.91667 -2.14681,1.70786 -4.18651,1.75819 -2.03968,0.0504 -20.8085,3.20393 -41.7085,7.00797 l -38,6.91644 -0.35584,34.32536 c -0.23714,22.87418 0.10194,34.32538 1.0164,34.32538 1.49734,0 65.75566,11.23304 76.87016,13.43772 6.41729,1.27294 6.92065,1.66326 7.73365,5.99693 2.45952,13.1104 11.8216,36.58956 21.90229,54.9288 l 5.2634,9.57543 -19.39012,27.69722 c -10.66456,15.23348 -21.77598,31.20951 -24.69202,35.5023 l -5.30192,7.80506 23.79566,23.86162 c 13.08762,13.1239 23.93438,23.8616 24.10392,23.8616 0.16955,0 16.21755,-11.1319 35.66223,-24.7376 z M 154.00275,547.94001 c -17.9022,-2.00485 -29.71524,-7.35802 -50.62457,-22.94093 C 87.416271,513.10328 61.4008,488.05909 51.669246,475.22067 45.16176,466.63563 39.37237,456.02193 34.6989,444.10893 c -3.01957,-7.69708 -5.89226,-12.28286 -12.95605,-20.68226 -5.07781,-6.03792 -5.52704,-9.72136 -1.68816,-13.84192 3.59709,-3.86102 6.83801,-3.68382 17.97331,0.98269 28.52738,11.95509 59.351508,10.46177 87.77593,-4.25244 12.89046,-6.67288 45.18172,-27.89735 62.19882,-40.88216 22.78297,-17.38443 41.46764,-26.49899 65.89288,-32.14315 11.00229,-2.5424 15.27318,-2.86854 29.16516,-2.22724 18.6677,0.86178 27.6949,3.02214 43.53954,10.41978 21.93416,10.24076 41.2705,28.35097 49.50815,46.36886 2.14185,4.68476 3.89427,9.23018 3.89427,10.10091 0,2.16001 -5.72488,7.38249 -8.08594,7.37635 -3.26477,-0.008 -9.49001,-4.6273 -20.58073,-15.26984 -17.67433,-16.96011 -32.30715,-25.05398 -52.94379,-29.28486 -12.6883,-2.60132 -20.38249,-2.6271 -32.2728,-0.10813 -13.69621,2.90153 -23.6441,8.15485 -43.71985,23.08772 -9.94687,7.39875 -25.58693,18.57392 -34.75572,24.83372 -18.82236,12.8506 -23.75479,17.82189 -29.1204,29.34991 -8.20857,17.6361 -7.94281,36.94002 0.75852,55.09666 10.22769,21.34163 26.59984,24.88206 53.38737,11.54487 19.50986,-9.71371 27.33334,-18.60169 27.33334,-31.05245 0,-15.8059 -15.91804,-26.46324 -29.23798,-19.57524 -8.04354,4.15948 -6.19144,10.05188 4.22528,13.44258 11.06527,3.60182 13.83344,7.42378 10.24,14.13819 -2.10294,3.92939 -14.16378,9.10817 -21.2273,9.11475 -17.98731,0.0168 -33.25767,-12.92243 -33.3114,-28.22607 -0.0388,-11.05741 3.98809,-17.24659 18.06125,-27.7592 17.43912,-13.02699 35.2132,-19.2054 55.25015,-19.2054 21.4861,0 40.36438,7.09569 55.37316,20.81285 8.11937,7.42067 14.36785,10.39828 21.82057,10.39828 4.11531,0 5.88871,0.77463 8.04283,3.51315 3.16356,4.02181 3.53668,8.25304 1.03006,11.68104 -1.04814,1.43341 -7.42225,3.91684 -16.12392,6.28204 -23.1511,6.29273 -45.81048,18.99492 -67.47604,37.82513 -21.99297,19.11479 -33.14878,27.52268 -43.33333,32.65943 -16.17884,8.16007 -32.35615,11.21383 -49.33333,9.31256 z m 1021.33335,-0.12293 c -23.2609,-2.58623 -34.1107,-8.92957 -75.9393,-44.39791 -21.483,-18.21641 -42.6058,-29.6998 -66.0041,-35.88309 -7.4527,-1.96948 -13.3148,-4.29623 -14.3333,-5.68909 -4.5749,-6.25647 1.064,-15.18032 9.5922,-15.18032 7.0276,0 13.3711,-3.14139 21.6822,-10.73719 8.1578,-7.45585 20.9055,-14.42683 33.0819,-18.09072 10.8068,-3.25176 33.034,-3.25176 43.8408,0 20.9836,6.31397 45.816,23.48948 49.9978,34.58137 6.9805,18.51503 -9.4954,38.24696 -31.9182,38.22607 -7.0635,-0.007 -19.1244,-5.18536 -21.2273,-9.11475 -3.5934,-6.71441 -0.8253,-10.53637 10.24,-14.13818 10.4167,-3.39071 12.2688,-9.28311 4.2253,-13.44259 -9.3463,-4.83315 -21.751,-0.73259 -26.6128,8.79723 -5.5794,10.93657 -1.736,24.58434 9.2152,32.72224 8.9093,6.62066 23.5222,13.44452 33.9884,15.8718 8.1494,1.88997 9.8008,1.90066 15.9826,0.1036 8.5351,-2.48122 14.0063,-7.92567 19.3387,-19.24438 8.3632,-17.75164 8.4784,-36.75552 0.3291,-54.2643 -5.376,-11.55042 -10.3016,-16.50324 -29.2979,-29.45968 -9.2664,-6.32019 -24.9284,-17.50563 -34.8044,-24.85654 -19.9509,-14.84973 -29.8197,-20.05832 -43.4936,-22.95513 -11.8904,-2.51895 -19.5845,-2.49316 -32.2728,0.10813 -20.6367,4.23088 -35.2695,12.32475 -52.94385,29.28486 -16.4971,15.83042 -20.54686,17.7461 -25.76759,12.18889 -3.68975,-3.92757 -3.66373,-4.32117 0.95577,-14.45644 10.38764,-22.79064 38.36197,-44.9814 67.05047,-53.18817 12.6501,-3.61875 35.0809,-4.84194 48.6503,-2.65296 23.6363,3.81294 47.0944,14.44617 70.0055,31.73257 35.5418,26.81615 69.7585,47.14952 87.1056,51.76273 20.094,5.34374 45.4336,3.45119 65.308,-4.87769 10.9743,-4.59901 14.4242,-4.83521 18.0253,-1.23411 3.911,3.911 3.2871,7.74575 -2.3723,14.58086 -6.7804,8.18898 -9.1298,12.05112 -12.3953,20.37593 -8.1925,20.88595 -16.2738,32.30557 -38.5158,54.42652 -17.0008,16.90833 -40.2172,34.98695 -52.8303,41.13903 -14.7079,7.17385 -30.8429,9.85642 -47.8863,7.96148 z M 582.66941,258.83749 c -11.34182,-2.45573 -13.26106,-5.03468 -21.5273,-28.92704 -6.05332,-17.49622 -6.96382,-21.53188 -7.50899,-33.2826 -0.68876,-14.84574 2.06144,-28.17924 8.38712,-40.66237 5.84833,-11.54113 15.57665,-18.63215 25.56187,-18.63215 6.76986,0 16.76797,4.37767 22.46484,9.83623 5.00794,4.79847 5.9558,6.51372 5.9558,10.77784 0,9.80816 -8.37263,18.34796 -19.77667,20.17155 -6.45477,1.03216 -9.15068,4.3236 -6.93393,8.46564 0.76078,1.42152 5.27598,4.50098 10.03381,6.84325 11.81531,5.81665 16.69599,5.07877 24.01012,-3.62993 2.93333,-3.49264 8.43027,-9.37598 12.21541,-13.07408 8.5944,-8.39678 11.49887,-14.13195 11.49887,-22.70571 0,-19.65593 -20.32523,-33.68104 -50.38095,-34.76457 -12.40229,-0.44712 -13.54281,-0.72234 -16.33333,-3.94147 -4.75436,-5.4846 -3.98376,-11.70294 2.89236,-23.33996 13.62756,-23.06299 35.64345,-45.79866 59.92408,-61.88318 27.8786,-18.46796 35.16953,-18.47934 62.85023,-0.0981 24.53337,16.29131 46.48592,38.92813 60.10764,61.98125 6.13148,10.37682 7.1919,15.71689 4.35668,21.93952 -1.96124,4.30445 -3.75703,4.81799 -18.76596,5.3665 -29.04366,1.06141 -49.41264,15.382 -49.41264,34.73999 0,8.57376 2.90446,14.30893 11.49886,22.7057 3.78515,3.69811 9.28208,9.58144 12.21542,13.07408 7.31413,8.70871 12.19481,9.44659 24.01012,3.62994 4.75782,-2.34227 9.27302,-5.42174 10.03381,-6.84326 2.21675,-4.14204 -0.47916,-7.43348 -6.93393,-8.46564 -11.40404,-1.82359 -19.77667,-10.36339 -19.77667,-20.17155 0,-4.26412 0.94785,-5.97937 5.9558,-10.77784 5.75179,-5.51119 15.73088,-9.84736 22.61953,-9.82879 14.92123,0.0403 26.8577,14.27555 32.23428,38.44228 3.73495,16.78784 2.23943,30.35834 -5.96501,54.1274 -3.77991,10.95075 -7.91484,21.06218 -9.18876,22.46984 -7.46868,8.2528 -22.54259,9.12048 -44.98917,2.58967 -41.28208,-12.01097 -77.61743,-12.05197 -118.66667,-0.13388 -14.58727,4.23521 -25.44457,5.56515 -32.66667,4.00141 z"
     id="path3723"
     inkscape:connector-curvature="0" />
</svg>
