<?xml version="1.0" encoding="UTF-8" standalone="no"?>
<!-- Created with Inkscape (http://www.inkscape.org/) -->

<svg
   xmlns:dc="http://purl.org/dc/elements/1.1/"
   xmlns:cc="http://creativecommons.org/ns#"
   xmlns:rdf="http://www.w3.org/1999/02/22-rdf-syntax-ns#"
   xmlns:svg="http://www.w3.org/2000/svg"
   xmlns="http://www.w3.org/2000/svg"
   xmlns:sodipodi="http://sodipodi.sourceforge.net/DTD/sodipodi-0.dtd"
   xmlns:inkscape="http://www.inkscape.org/namespaces/inkscape"
   width="210mm"
   height="297mm"
   viewBox="0 0 210 297"
   version="1.1"
   id="svg943"
   inkscape:version="0.92.3 (2405546, 2018-03-11)"
   sodipodi:docname="sapoconcho logo.svg">
  <defs
     id="defs937" />
  <sodipodi:namedview
     id="base"
     pagecolor="#ffffff"
     bordercolor="#666666"
     borderopacity="1.0"
     inkscape:pageopacity="0.0"
     inkscape:pageshadow="2"
     inkscape:zoom="1.4"
     inkscape:cx="276.87513"
     inkscape:cy="498.99024"
     inkscape:document-units="mm"
     inkscape:current-layer="layer1"
     showgrid="false"
     inkscape:window-width="1920"
     inkscape:window-height="1137"
     inkscape:window-x="-8"
     inkscape:window-y="-8"
     inkscape:window-maximized="1" />
  <metadata
     id="metadata940">
    <rdf:RDF>
      <cc:Work
         rdf:about="">
        <dc:format>image/svg+xml</dc:format>
        <dc:type
           rdf:resource="http://purl.org/dc/dcmitype/StillImage" />
        <dc:title />
      </cc:Work>
    </rdf:RDF>
  </metadata>
  <g
     inkscape:label="Capa 1"
     inkscape:groupmode="layer"
     id="layer1">
    <path
       style="fill:#000000;stroke-width:0.20088843"
       d="m 66.632477,225.18315 c -3.634202,-0.82407 -7.136834,-3.38247 -10.731921,-7.83891 -2.813481,-3.48754 -4.536635,-6.40829 -5.39678,-9.1475 -0.397611,-1.26625 -0.470392,-1.92157 -0.46775,-4.21158 0.0034,-3.1199 0.28133,-4.35921 1.553122,-6.93065 2.345287,-4.74193 8.134149,-11.81827 11.490541,-14.04613 2.374596,-1.57617 5.297291,-2.55033 7.801693,-2.60038 1.486981,-0.0298 1.798064,0.16597 1.703057,1.07132 -0.05714,0.54445 -0.229766,0.65217 -2.664593,1.66274 -0.88446,0.3671 -2.150056,1.02023 -2.812438,1.45143 -1.633825,1.06358 -4.252378,3.76668 -5.175691,5.34278 -2.148748,3.66796 -3.685094,10.16552 -3.531525,14.93566 0.06267,1.94675 0.142339,2.37108 0.633065,3.37188 2.579831,5.26135 9.356905,5.5226 12.543739,0.48356 1.18121,-1.86774 1.63965,-4.80495 1.074946,-6.88709 -0.545297,-2.01059 -3.012406,-2.80988 -5.21041,-1.68805 -1.063154,0.54261 -1.472051,1.08557 -1.587256,2.10763 -0.09076,0.80527 -0.03571,0.96857 0.510527,1.51482 0.743322,0.74332 1.181325,0.76334 2.408541,0.11004 1.104397,-0.58792 1.312121,-0.61024 1.735818,-0.18654 0.846979,0.84697 0.01179,2.59943 -1.584448,3.32449 -2.145821,0.97471 -4.735394,-0.0827 -6.030677,-2.46259 -0.809994,-1.48823 -0.931849,-3.59976 -0.3038,-5.26439 0.704811,-1.86809 1.847368,-3.10816 3.743389,-4.06282 2.491577,-1.25455 4.194555,-1.59347 8.006767,-1.59347 2.852682,0 3.317914,0.0479 4.136171,0.42643 1.985805,0.9185 3.199373,2.79869 3.191845,4.94515 -0.0057,1.63047 -0.513659,2.75071 -1.89105,4.17063 -3.114793,3.21098 -5.81075,9.4045 -5.815022,13.35908 -0.0011,1.28718 0.106055,1.87018 0.539717,2.92865 0.297798,0.72683 0.541448,1.61851 0.541448,1.98152 0,1.42364 -1.556659,3.11543 -3.315278,3.60306 -1.381223,0.38299 -3.715588,0.4422 -5.095747,0.12923 z m 72.695333,0.16425 c -2.22398,-0.34591 -3.6462,-1.14566 -4.38962,-2.46842 -0.57019,-1.01453 -0.5445,-1.81282 0.10975,-3.40964 0.43365,-1.05847 0.5411,-1.64147 0.5397,-2.92865 -0.005,-3.95458 -2.70022,-10.1481 -5.81502,-13.35908 -1.37738,-1.41992 -1.88532,-2.54016 -1.89105,-4.17063 -0.007,-2.14646 1.20604,-4.02665 3.19185,-4.94515 0.81826,-0.37846 1.28349,-0.42643 4.13617,-0.42643 3.81221,0 5.51519,0.33892 8.00677,1.59347 1.89602,0.95466 3.03858,2.19473 3.74339,4.06282 0.62805,1.66463 0.50619,3.77616 -0.3038,5.26439 -1.29528,2.37986 -3.88486,3.4373 -6.03068,2.46259 -1.59621,-0.72506 -2.43143,-2.47752 -1.58445,-3.32449 0.4237,-0.4237 0.63142,-0.40138 1.73583,0.18654 1.22721,0.6533 1.66521,0.63328 2.40853,-0.11004 0.54626,-0.54625 0.60129,-0.70955 0.51052,-1.51482 -0.11519,-1.02206 -0.52409,-1.56502 -1.58724,-2.10763 -1.5865,-0.80972 -3.16052,-0.68445 -4.38907,0.34932 -0.74271,0.62494 -1.05208,1.72256 -1.03849,3.6845 0.0401,5.80075 5.52599,9.82145 10.31149,7.55755 1.42489,-0.67408 2.8163,-2.05581 3.52434,-3.49979 0.49072,-1.0008 0.57039,-1.42513 0.63307,-3.37188 0.15356,-4.77014 -1.38278,-11.2677 -3.53153,-14.93566 -0.92331,-1.5761 -3.54187,-4.2792 -5.17569,-5.34278 -0.66239,-0.4312 -1.92798,-1.08433 -2.81244,-1.45143 -2.43483,-1.01057 -2.60746,-1.11829 -2.66459,-1.66274 -0.095,-0.90535 0.21607,-1.10104 1.70305,-1.07132 2.50441,0.05 5.4271,1.02421 7.80169,2.60038 3.3564,2.22786 9.14526,9.3042 11.49055,14.04613 1.27179,2.57144 1.54951,3.81075 1.55312,6.93065 0.004,2.99177 -0.33764,4.52058 -1.53998,6.9024 -1.49568,2.96294 -4.77775,7.34809 -7.32368,9.78512 -3.62747,3.47232 -7.84851,5.21504 -11.32249,4.67472 z M 101.98688,200.87008 C 89.435057,193.19484 77.498053,182.84435 67.815516,171.24035 56.307864,157.44905 51.492673,147.60919 50.02216,134.87954 c -0.412348,-3.56952 -0.307166,-11.15053 0.200679,-14.46396 1.509452,-9.84846 5.943973,-19.77015 12.121317,-27.11994 3.505952,-4.171379 8.434423,-8.498838 12.988682,-11.404764 2.803458,-1.788793 7.934739,-4.257781 11.129635,-5.355169 14.226767,-4.886662 29.234027,-4.006696 42.519577,2.493177 5.49878,2.690247 9.77126,5.695005 14.13566,9.941369 5.16318,5.023558 8.84446,10.213879 11.79646,16.632117 1.9471,4.23336 3.68611,10.07081 4.41298,14.81321 0.50785,3.31343 0.61302,10.89444 0.20067,14.46396 -1.04719,9.06514 -4.0272,17.16928 -9.12147,24.80582 -8.42134,12.62402 -19.62455,24.45282 -31.8705,33.65019 -5.50008,4.13087 -12.9746,9.0425 -13.76085,9.0425 -0.17712,0 -1.43177,-0.67858 -2.78812,-1.50797 z m 10.20546,-9.59925 c 3.83906,-2.68595 9.52604,-7.20734 12.6715,-10.07438 2.95552,-2.69391 8.8134,-8.68038 11.14931,-11.39405 1.43635,-1.66864 2.70194,-3.13513 2.81243,-3.25885 0.1998,-0.22376 0.40093,-0.48339 2.51111,-3.2416 7.70072,-10.06563 11.00784,-16.97839 12.68453,-26.51396 0.58633,-3.33455 0.72905,-10.23337 0.28468,-13.76086 -1.16864,-9.27695 -4.3017,-17.0195 -9.90675,-24.481969 -1.90601,-2.537641 -5.94559,-6.723484 -8.23876,-8.537083 -1.27566,-1.008874 -5.40535,-3.944421 -5.54898,-3.944421 -0.0289,0 -0.99479,-0.521096 -2.14664,-1.157988 -7.12119,-3.93752 -15.45302,-6.07366 -23.68977,-6.07366 -8.236757,0 -16.568594,2.13614 -23.689792,6.07366 -1.151849,0.636892 -2.117837,1.157988 -2.14664,1.157988 -0.14362,0 -4.273316,2.935547 -5.548976,3.944421 -2.293165,1.813599 -6.33274,5.999442 -8.23876,8.537083 -5.605049,7.462469 -8.73811,15.205019 -9.906753,24.481969 -0.444363,3.52749 -0.301642,10.42631 0.284684,13.76086 1.676682,9.53557 4.983811,16.44833 12.684534,26.51396 2.110168,2.75821 2.311297,3.01784 2.511105,3.2416 0.11049,0.12372 1.376087,1.59021 2.812439,3.25885 2.335901,2.71367 8.193779,8.70014 11.149309,11.39405 4.802771,4.37765 11.940517,9.79081 17.63943,13.37749 l 2.47235,1.556 2.53434,-1.61597 c 1.39387,-0.88879 3.58091,-2.3482 4.86007,-3.24314 z m -39.652306,-31.07162 -3.60835,-3.61262 0.630578,-0.8946 c 2.362023,-3.35104 6.045044,-8.66291 6.353969,-9.16408 l 0.370499,-0.60107 -1.412155,-2.86188 c -1.247955,-2.52911 -2.643512,-6.26204 -2.643512,-7.07108 0,-0.15789 -0.08867,-0.34187 -0.197052,-0.40886 -0.154114,-0.0952 -12.207274,-2.31258 -12.570924,-2.31258 -0.04886,0 -0.08888,-2.33223 -0.08888,-5.18273 v -5.18273 l 6.076871,-1.07546 c 3.342281,-0.5915 6.214016,-1.14397 6.381633,-1.22772 0.167611,-0.0837 0.467773,-0.77055 0.667017,-1.52625 0.516028,-1.95715 1.622549,-4.6923 2.765185,-6.83513 0.541158,-1.01485 0.98392,-1.92708 0.98392,-2.02719 0,-0.1001 -1.627195,-2.50595 -3.615991,-5.34633 -1.988795,-2.84038 -3.615991,-5.22868 -3.615991,-5.307339 0,-0.07866 1.619856,-1.760993 3.599682,-3.738525 l 3.599688,-3.59552 1.207109,0.885617 c 0.663908,0.487088 3.060182,2.174879 5.325052,3.750643 l 4.117942,2.865021 1.181382,-0.692385 c 2.165717,-1.269293 7.900748,-3.530997 8.953588,-3.530997 0.178937,0 0.549619,-1.663259 1.220013,-5.474212 0.529644,-3.010817 1.053187,-5.90361 1.163433,-6.428431 l 0.200445,-0.954217 h 5.189805 5.18981 l 0.20045,0.954217 c 0.11024,0.524821 0.63378,3.417614 1.16342,6.428431 0.6704,3.810953 1.04108,5.474212 1.22002,5.474212 1.05284,0 6.78786,2.261704 8.95358,3.530997 l 1.18138,0.692385 4.11795,-2.865021 c 2.26487,-1.575764 4.66113,-3.263555 5.32505,-3.750643 l 1.20711,-0.885617 3.59968,3.59552 c 1.97983,1.977532 3.59969,3.659868 3.59969,3.738525 0,0.07866 -1.62719,2.466959 -3.61599,5.307339 -1.9888,2.84038 -3.61599,5.24905 -3.61599,5.3526 0,0.10354 0.40171,0.92537 0.89271,1.82628 1.05016,1.92695 2.34016,5.10684 2.85401,7.03527 0.20056,0.75267 0.50179,1.437 0.6694,1.52075 0.16761,0.0837 3.03935,0.63622 6.38163,1.22772 l 6.07687,1.07546 v 5.18273 c 0,2.8505 -0.0399,5.18273 -0.0889,5.18273 -0.36365,0 -12.4168,2.21733 -12.57092,2.31258 -0.10838,0.067 -0.19705,0.25097 -0.19705,0.40886 0,0.80904 -1.39556,4.54197 -2.64352,7.07108 l -1.41215,2.86188 0.3705,0.60107 c 0.30892,0.50117 3.99195,5.81304 6.35397,9.16408 l 0.63058,0.8946 -3.60835,3.61262 c -1.9846,1.98694 -3.72143,3.56925 -3.85964,3.51623 -0.1382,-0.053 -0.6354,-0.38063 -1.10488,-0.72806 -0.46948,-0.34743 -2.7773,-1.97302 -5.12846,-3.61242 l -4.27485,-2.98074 -1.22716,0.71922 c -1.34059,0.78569 -4.0435,2.0736 -4.35185,2.0736 -0.10631,0 -0.53234,-0.88139 -0.94672,-1.95867 -0.92797,-2.41246 -5.3256,-13.66827 -6.13162,-15.69401 -0.32413,-0.81464 -0.58934,-1.54227 -0.58934,-1.61697 0,-0.0746 0.32204,-0.25227 0.71564,-0.39459 0.86345,-0.31223 3.14992,-2.00658 4.06432,-3.01178 2.22322,-2.44406 3.44327,-5.9963 3.18954,-9.28657 -0.3369,-4.3689 -3.02883,-8.44893 -6.8051,-10.31416 -2.07039,-1.02263 -3.34373,-1.31127 -5.78483,-1.31127 -1.21259,0 -2.57906,0.12484 -3.21421,0.29365 -1.827603,0.48572 -3.943112,1.65438 -5.310845,2.93382 -5.133889,4.8025 -5.479857,12.63709 -0.785371,17.78493 0.839992,0.92111 3.150007,2.61329 3.974356,2.91138 0.393597,0.14232 0.71563,0.31989 0.71563,0.39459 0,0.0747 -0.265203,0.80233 -0.589338,1.61697 -0.806024,2.02574 -5.203651,13.28155 -6.131634,15.69401 -0.414375,1.07728 -0.840396,1.95867 -0.946712,1.95867 -0.30835,0 -3.011261,-1.28791 -4.351855,-2.0736 l -1.227154,-0.71922 -4.274848,2.98074 c -2.351174,1.6394 -4.65898,3.26499 -5.128467,3.61242 -0.46948,0.34743 -0.966682,0.67506 -1.104882,0.72806 -0.138205,0.053 -1.875036,-1.52929 -3.859635,-3.51623 z M 26.428504,115.38697 C 23.097452,115.04389 20.731665,113.77642 16.247033,109.93223 12.257735,106.51264 9.2321228,102.62846 8.4517863,99.92496 8.2292126,99.153855 7.3598143,97.715971 6.4867886,96.675089 5.8150733,95.874224 5.7187463,95.644031 5.8346061,95.116534 c 0.2557558,-1.164446 1.0103651,-1.271798 3.0199625,-0.429625 4.2981154,1.80123 8.9422734,1.576236 13.2248764,-0.640703 2.000127,-1.035387 6.776072,-4.18762 9.773045,-6.450434 3.39364,-2.562314 6.979064,-4.183781 10.511222,-4.753576 1.888595,-0.304667 5.364458,-0.149931 7.066513,0.314579 3.179817,0.867805 6.656762,3.066612 8.652881,5.472044 1.011105,1.218435 2.295539,3.544634 2.295539,4.157365 0,0.325445 -0.862542,1.112296 -1.218276,1.111368 -0.503488,-0.0011 -1.446733,-0.699401 -3.092243,-2.288558 -2.642025,-2.551541 -4.869026,-3.785414 -7.985424,-4.424334 -1.911704,-0.391928 -3.070957,-0.395817 -4.862427,-0.01629 -2.118681,0.448845 -3.526925,1.214758 -7.249574,3.942918 -1.878305,1.37652 -4.217329,3.041323 -5.197831,3.699564 -2.065306,1.386496 -2.964071,2.339849 -3.750752,3.97857 -1.224375,2.550468 -1.214216,5.492068 0.02819,8.166638 0.802545,1.72766 1.625607,2.55287 2.922143,2.92979 0.931388,0.27075 1.180196,0.26915 2.408039,-0.0156 1.635892,-0.37939 3.840007,-1.40643 5.125723,-2.38838 1.692443,-1.29261 2.20965,-3.21709 1.327137,-4.93814 -0.740133,-1.4434 -2.547783,-2.04718 -3.953178,-1.32042 -1.211893,0.6267 -0.932841,1.51448 0.636608,2.02535 1.667159,0.54267 2.084235,1.11851 1.542821,2.13015 -0.316841,0.59203 -2.134005,1.37229 -3.198239,1.37329 -2.710081,0.002 -5.010809,-1.94698 -5.018906,-4.25272 -0.0059,-1.66599 0.60087,-2.598484 2.721224,-4.18238 2.627488,-1.962731 5.305441,-2.893607 8.324332,-2.893607 3.237235,0 6.081557,1.069081 8.342873,3.135793 1.199075,1.09589 2.163946,1.566674 3.210893,1.566674 1.355416,0 2.205704,1.50805 1.338981,2.37477 -0.201243,0.20125 -1.037441,0.52711 -1.858221,0.72414 -3.856213,0.92571 -7.816315,3.20306 -11.637189,6.69226 -4.809987,4.39245 -8.417339,5.9272 -12.856861,5.46995 z m 153.712036,-0.0208 c -3.208,-0.38611 -5.90287,-1.86418 -9.76908,-5.35811 -4.02679,-3.63904 -7.85362,-5.84941 -11.74402,-6.78332 -0.82078,-0.19703 -1.65699,-0.52289 -1.85822,-0.72413 -0.86673,-0.86673 -0.0165,-2.37478 1.33897,-2.37478 1.04695,0 2.01182,-0.47078 3.21089,-1.566671 1.21793,-1.11311 3.28567,-2.254442 5.02821,-2.775425 1.64252,-0.49108 4.98743,-0.491735 6.61733,-0.0011 3.16153,0.951302 6.90293,3.539071 7.53299,5.210246 1.05171,2.78959 -1.43065,5.76253 -4.809,5.75939 -1.06424,-0.001 -2.8814,-0.78126 -3.19824,-1.37329 -0.54141,-1.01164 -0.12434,-1.58748 1.54282,-2.13015 1.56945,-0.51087 1.8485,-1.39865 0.63661,-2.02535 -1.4054,-0.72676 -3.21304,-0.12298 -3.95318,1.32041 -0.88251,1.72106 -0.3653,3.64554 1.32714,4.93814 1.28572,0.98197 3.48983,2.009 5.12572,2.38839 1.22783,0.28475 1.47665,0.28636 2.40804,0.0156 1.29654,-0.37691 2.1196,-1.20214 2.92215,-2.92979 1.24241,-2.67457 1.25257,-5.61617 0.0282,-8.166637 -0.78669,-1.638722 -1.68545,-2.592079 -3.75075,-3.978569 -0.9805,-0.658333 -3.31954,-2.323136 -5.19784,-3.699662 -3.72265,-2.728154 -5.13089,-3.494072 -7.24958,-3.942911 -1.79145,-0.379525 -2.95072,-0.375636 -4.86241,0.01629 -3.11641,0.638914 -5.34341,1.872788 -7.98543,4.424328 -2.44841,2.364562 -3.08471,2.664234 -3.87373,1.824368 -0.55531,-0.591098 -0.55243,-0.632787 0.14994,-2.169038 1.24114,-2.714692 4.15448,-5.443291 7.45921,-6.986226 2.30119,-1.074394 3.71704,-1.428898 6.26311,-1.568156 4.8675,-0.266228 9.50367,1.327029 14.21711,4.885831 2.99697,2.262814 7.77291,5.415053 9.77304,6.45044 4.2826,2.216932 8.92675,2.441927 13.22489,0.640697 2.00958,-0.842168 2.7642,-0.734821 3.01995,0.429625 0.11585,0.527496 0.0195,0.75769 -0.65219,1.558555 -0.87301,1.040888 -1.74242,2.478771 -1.96499,3.249871 -0.78035,2.703504 -3.80595,6.587684 -7.79524,10.007264 -5.42971,4.65429 -8.63747,5.97858 -13.16242,5.43397 z M 90.813245,71.826678 c -1.638431,-0.427427 -1.917118,-0.814214 -3.140583,-4.358694 -1.24312,-3.601454 -1.462317,-5.621922 -0.889323,-8.197426 0.731285,-3.28699 2.286657,-5.369343 4.22796,-5.66046 2.133993,-0.320012 4.924605,1.388759 4.924605,3.015477 0,1.47776 -1.26148,2.76442 -2.979679,3.039173 -0.97252,0.155512 -1.378701,0.651421 -1.044714,1.275488 0.114624,0.214176 0.794914,0.678144 1.511758,1.031048 1.684152,0.829104 2.515425,0.743333 3.477894,-0.358831 0.365158,-0.418163 1.189935,-1.302694 1.832829,-1.965627 1.477918,-1.523963 1.900478,-2.33356 1.888608,-3.618402 -0.027,-2.923306 -3.086161,-5.069393 -7.453693,-5.229005 -2.313466,-0.08454 -2.553356,-0.160494 -2.862219,-0.906154 -0.543134,-1.311242 0.09076,-2.725797 2.759343,-6.157499 1.770811,-2.277197 4.369342,-4.653547 6.988089,-6.390569 2.22684,-1.477072 3.63715,-2.106315 4.72088,-2.106315 2.6217,0 8.52977,4.356088 11.98826,8.839092 2.38101,3.086339 3.00467,4.548718 2.48004,5.815291 -0.30886,0.74566 -0.54875,0.821608 -2.86222,0.906154 -4.36753,0.159612 -7.42667,2.305699 -7.45368,5.229005 -0.0119,1.284842 0.41069,2.094439 1.88859,3.618402 0.6429,0.662933 1.46767,1.547464 1.83284,1.965627 0.96246,1.102164 1.79374,1.187935 3.47788,0.358831 0.71684,-0.352904 1.39714,-0.816872 1.51176,-1.031048 0.33399,-0.624067 -0.0722,-1.119976 -1.0447,-1.275488 -1.71822,-0.274753 -2.97969,-1.561413 -2.97969,-3.039173 0,-1.626718 2.7906,-3.335489 4.9246,-3.015477 1.94131,0.291117 3.49668,2.37347 4.22797,5.66046 0.573,2.575504 0.3538,4.595972 -0.88934,8.197426 -0.56949,1.649912 -1.1925,3.17336 -1.38443,3.385451 -1.12925,1.247807 -3.34619,1.375164 -6.77835,0.389411 -3.4938,-1.003463 -5.67855,-1.32802 -8.93953,-1.32802 -3.22479,0 -5.36656,0.313595 -8.939541,1.308921 -2.35454,0.655906 -4.042405,0.858538 -5.022214,0.602931 z"
       id="path1499"
       inkscape:connector-curvature="0" />
    <g
       aria-label="Sapoconcho"
       transform="matrix(0.15066632,0,0,0.15066632,26.17022,24.642643)"
       style="font-style:normal;font-weight:normal;font-size:40px;line-height:1.25;font-family:sans-serif;letter-spacing:0px;word-spacing:0px;fill:#000000;fill-opacity:1;stroke:none"
       id="flowRoot1516">
      <path
         d="m 182.99605,1395.4802 c -3.648,-40.32 -63.168,-37.248 -70.464,1.344 -0.576,4.032 -4.416,24.96 12.48,38.208 13.44,10.944 31.872,7.68 30.72,32.256 -0.384,9.792 -5.184,19.008 -15.168,19.392 -8.832,0.192 -13.632,-14.016 -14.976,-23.424 -0.576,-3.456 -4.608,-5.952 -8.256,-4.992 -3.456,0.576 -6.336,4.032 -5.952,7.488 3.456,19.776 12.672,37.632 36.48,35.712 16.32,-1.344 33.6,-12.864 35.712,-36.288 0.192,-16.512 -7.488,-30.336 -19.584,-39.744 -10.944,-8.832 -38.208,-15.552 -24,-36.288 8.448,-11.328 27.264,-7.488 28.8,7.68 0.576,3.456 4.032,6.528 7.68,6.528 4.032,-0.576 7.104,-4.224 6.528,-7.872 z"
         style="font-style:normal;font-variant:normal;font-weight:normal;font-stretch:normal;font-size:192px;font-family:'Go Frog';-inkscape-font-specification:'Go Frog, Normal';font-variant-ligatures:normal;font-variant-caps:normal;font-variant-numeric:normal;font-feature-settings:normal;text-align:center;writing-mode:lr-tb;text-anchor:middle"
         id="path817"
         inkscape:connector-curvature="0" />
      <path
         d="m 230.80705,1440.0242 c 0,5.568 1.536,39.168 0,41.664 -3.264,3.456 -5.76,5.568 -8.448,5.952 -16.128,4.032 -15.36,-57.792 3.264,-51.264 1.344,0.384 3.264,1.728 5.184,3.648 z m 2.688,57.408 c 2.88,3.264 7.296,5.76 11.904,5.76 7.488,0 13.632,-6.528 13.632,-13.44 l -0.768,-54.144 c 0,-7.872 -5.952,-13.632 -13.632,-13.632 -3.84,0 -7.104,1.344 -9.792,4.032 -1.344,-1.536 -3.264,-1.92 -4.608,-2.688 -5.76,-1.728 -12.288,-1.728 -17.28,0.768 -13.824,5.76 -21.12,21.504 -21.504,35.52 -0.768,15.168 5.184,32.64 18.816,39.552 5.184,2.112 10.368,2.88 16.128,1.536 2.496,-0.768 5.184,-1.536 7.104,-3.264 z"
         style="font-style:normal;font-variant:normal;font-weight:normal;font-stretch:normal;font-size:192px;font-family:'Go Frog';-inkscape-font-specification:'Go Frog, Normal';font-variant-ligatures:normal;font-variant-caps:normal;font-variant-numeric:normal;font-feature-settings:normal;text-align:center;writing-mode:lr-tb;text-anchor:middle"
         id="path819"
         inkscape:connector-curvature="0" />
      <path
         d="m 295.42105,1436.9522 c 15.552,-4.608 20.928,9.6 20.928,24.384 0,17.28 -8.448,35.52 -20.544,25.152 z m 0.384,65.088 c 25.344,8.256 38.4,-16.704 37.44,-41.088 -0.576,-24 -15.168,-46.848 -43.584,-36.864 -2.496,-0.96 -4.992,-1.92 -7.872,-1.92 -7.488,0 -13.824,6.144 -13.824,13.44 l 0.576,97.152 c 0,7.872 6.336,14.208 13.824,14.208 7.296,0 13.44,-6.912 13.44,-14.208 z"
         style="font-style:normal;font-variant:normal;font-weight:normal;font-stretch:normal;font-size:192px;font-family:'Go Frog';-inkscape-font-specification:'Go Frog, Normal';font-variant-ligatures:normal;font-variant-caps:normal;font-variant-numeric:normal;font-feature-settings:normal;text-align:center;writing-mode:lr-tb;text-anchor:middle"
         id="path821"
         inkscape:connector-curvature="0" />
      <path
         d="m 413.98705,1438.8722 c -18.048,-29.568 -67.776,-20.544 -70.272,18.624 -1.536,33.024 18.048,43.776 43.776,43.2 22.656,-0.384 34.56,-24.576 32.064,-44.544 -0.384,-6.336 -2.496,-12.288 -5.568,-17.28 z m -26.304,-2.496 c 10.176,-0.192 17.28,11.904 18.432,21.12 4.224,36.096 -37.056,38.016 -34.944,1.728 0.576,-8.448 2.496,-21.888 16.512,-22.848 z"
         style="font-style:normal;font-variant:normal;font-weight:normal;font-stretch:normal;font-size:192px;font-family:'Go Frog';-inkscape-font-specification:'Go Frog, Normal';font-variant-ligatures:normal;font-variant-caps:normal;font-variant-numeric:normal;font-feature-settings:normal;text-align:center;writing-mode:lr-tb;text-anchor:middle"
         id="path823"
         inkscape:connector-curvature="0" />
      <path
         d="m 493.13305,1434.2642 c -26.112,-23.616 -61.824,-12.864 -63.36,24.384 -2.112,40.896 36.672,54.72 65.856,28.992 2.88,-2.496 3.456,-6.912 0.96,-9.792 -2.496,-3.072 -6.912,-4.032 -9.984,-1.536 -17.28,13.824 -27.456,4.608 -28.8,-16.128 0.576,-14.784 11.712,-27.84 25.92,-15.744 2.496,2.304 7.488,2.304 9.984,-0.576 2.304,-2.496 2.304,-6.72 -0.576,-9.6 z"
         style="font-style:normal;font-variant:normal;font-weight:normal;font-stretch:normal;font-size:192px;font-family:'Go Frog';-inkscape-font-specification:'Go Frog, Normal';font-variant-ligatures:normal;font-variant-caps:normal;font-variant-numeric:normal;font-feature-settings:normal;text-align:center;writing-mode:lr-tb;text-anchor:middle"
         id="path825"
         inkscape:connector-curvature="0" />
      <path
         d="m 574.48705,1438.8722 c -18.048,-29.568 -67.776,-20.544 -70.272,18.624 -1.536,33.024 18.048,43.776 43.776,43.2 22.656,-0.384 34.56,-24.576 32.064,-44.544 -0.384,-6.336 -2.496,-12.288 -5.568,-17.28 z m -26.304,-2.496 c 10.176,-0.192 17.28,11.904 18.432,21.12 4.224,36.096 -37.056,38.016 -34.944,1.728 0.576,-8.448 2.496,-21.888 16.512,-22.848 z"
         style="font-style:normal;font-variant:normal;font-weight:normal;font-stretch:normal;font-size:192px;font-family:'Go Frog';-inkscape-font-specification:'Go Frog, Normal';font-variant-ligatures:normal;font-variant-caps:normal;font-variant-numeric:normal;font-feature-settings:normal;text-align:center;writing-mode:lr-tb;text-anchor:middle"
         id="path827"
         inkscape:connector-curvature="0" />
      <path
         d="m 589.88905,1487.2562 c 0,7.488 5.952,13.824 13.632,13.824 7.488,0 14.016,-6.336 14.016,-13.824 v -41.664 c 5.568,-6.528 19.2,-13.824 26.496,-6.72 9.792,9.408 9.216,41.664 8.448,53.568 -0.576,4.032 2.496,7.296 6.336,7.488 3.648,0.384 7.104,-2.496 7.488,-6.336 1.152,-18.048 1.92,-50.496 -12.48,-64.704 -10.56,-9.984 -27.264,-7.488 -38.208,0.192 -2.496,-4.032 -7.104,-6.528 -12.096,-6.528 -7.68,0 -13.632,6.144 -13.632,13.824 z"
         style="font-style:normal;font-variant:normal;font-weight:normal;font-stretch:normal;font-size:192px;font-family:'Go Frog';-inkscape-font-specification:'Go Frog, Normal';font-variant-ligatures:normal;font-variant-caps:normal;font-variant-numeric:normal;font-feature-settings:normal;text-align:center;writing-mode:lr-tb;text-anchor:middle"
         id="path829"
         inkscape:connector-curvature="0" />
      <path
         d="m 739.50805,1434.2642 c -26.112,-23.616 -61.824,-12.864 -63.36,24.384 -2.112,40.896 36.672,54.72 65.856,28.992 2.88,-2.496 3.456,-6.912 0.96,-9.792 -2.496,-3.072 -6.912,-4.032 -9.984,-1.536 -17.28,13.824 -27.456,4.608 -28.8,-16.128 0.576,-14.784 11.712,-27.84 25.92,-15.744 2.496,2.304 7.488,2.304 9.984,-0.576 2.304,-2.496 2.304,-6.72 -0.576,-9.6 z"
         style="font-style:normal;font-variant:normal;font-weight:normal;font-stretch:normal;font-size:192px;font-family:'Go Frog';-inkscape-font-specification:'Go Frog, Normal';font-variant-ligatures:normal;font-variant-caps:normal;font-variant-numeric:normal;font-feature-settings:normal;text-align:center;writing-mode:lr-tb;text-anchor:middle"
         id="path831"
         inkscape:connector-curvature="0" />
      <path
         d="m 750.39805,1487.8322 c 0,7.68 6.336,13.632 14.016,13.632 7.488,0 13.44,-5.952 13.44,-13.632 v -36.288 c 4.032,-8.256 13.248,-19.2 23.616,-14.016 15.744,8.256 12.864,39.168 12.672,54.72 0,3.84 3.072,6.72 6.72,6.72 4.032,0 7.104,-2.688 7.104,-6.72 0.384,-21.696 2.88,-61.056 -24,-68.544 -9.024,-2.496 -18.816,0 -26.112,5.568 v -29.376 c 0,-7.488 -5.952,-13.632 -13.44,-13.632 -7.68,0 -14.016,6.144 -14.016,13.632 z"
         style="font-style:normal;font-variant:normal;font-weight:normal;font-stretch:normal;font-size:192px;font-family:'Go Frog';-inkscape-font-specification:'Go Frog, Normal';font-variant-ligatures:normal;font-variant-caps:normal;font-variant-numeric:normal;font-feature-settings:normal;text-align:center;writing-mode:lr-tb;text-anchor:middle"
         id="path833"
         inkscape:connector-curvature="0" />
      <path
         d="m 906.73705,1438.8722 c -18.048,-29.568 -67.776,-20.544 -70.272,18.624 -1.536,33.024 18.048,43.776 43.776,43.2 22.656,-0.384 34.56,-24.576 32.064,-44.544 -0.384,-6.336 -2.496,-12.288 -5.568,-17.28 z m -26.304,-2.496 c 10.176,-0.192 17.28,11.904 18.432,21.12 4.224,36.096 -37.056,38.016 -34.944,1.728 0.576,-8.448 2.496,-21.888 16.512,-22.848 z"
         style="font-style:normal;font-variant:normal;font-weight:normal;font-stretch:normal;font-size:192px;font-family:'Go Frog';-inkscape-font-specification:'Go Frog, Normal';font-variant-ligatures:normal;font-variant-caps:normal;font-variant-numeric:normal;font-feature-settings:normal;text-align:center;writing-mode:lr-tb;text-anchor:middle"
         id="path835"
         inkscape:connector-curvature="0" />
    </g>
  </g>
</svg>
